<?xml version="1.0" encoding="UTF-8" standalone="no"?>
<!DOCTYPE svg PUBLIC "-//W3C//DTD SVG 1.1//EN" "http://www.w3.org/Graphics/SVG/1.1/DTD/svg11.dtd">
<svg width="100%" height="100%" viewBox="0 0 48 49" version="1.1" xmlns="http://www.w3.org/2000/svg" xmlns:xlink="http://www.w3.org/1999/xlink" xml:space="preserve" xmlns:serif="http://www.serif.com/" style="fill-rule:evenodd;clip-rule:evenodd;stroke-linejoin:round;stroke-miterlimit:2;">
    <g transform="matrix(1,0,0,1,-393.832121,-143.431173)">
        <g transform="matrix(0.025698,0,0,0.025698,362.179224,123.587725)">
            <g transform="matrix(1.846402,0,0,1.846402,1229.869959,770.350333)">
                <path d="M1006.991,546.537C964.246,924.47 673.254,1022.791 498.5,1022.791C2.271,1022.791 1.316,1022.927 1.109,1021.64C1.025,1021.115 0.923,3.648 1.163,2.339C1.398,1.059 2.326,1.195 503.5,1.195C509.856,1.195 634.734,-6.707 772.264,76.904C962.842,192.767 998.622,390.091 1006.252,429.55C1010.621,452.144 1010,513.967 1006.991,546.537Z" style="fill:url(#_Linear1);"/>
            </g>
            <g transform="matrix(1.107196,0,0,1.107196,-1471.629606,-1274.46419)">
                <g transform="matrix(1.801646,0,0,1.801646,2320.376536,1848.685599)">
                    <path d="M782.88,515.415C786.367,534.124 808.766,654.3 698.876,737.984C632.359,788.638 572.689,781.575 472.5,781.614C386.689,781.648 385.442,781.818 385.141,779.594C385.11,779.365 384.284,649.984 385.61,648.598C388.762,645.305 561.557,650.611 582.545,645.668C671.954,624.609 671.095,493.255 581.455,477.781C545.929,471.648 411.387,484.711 352.414,469.875C275.938,450.637 209.944,382.635 197.258,298.538C196.654,294.537 194.196,294.627 194.529,166.5C194.538,162.896 196.706,163.759 237.499,163.734C247.318,163.728 320.633,163.724 321.482,163.754C324.749,163.87 323.727,166.005 323.905,256.498C323.936,272.193 333.307,344.294 423.5,344.305C606.923,344.328 617.512,340.808 671.717,368.062C758.839,411.866 779.54,501.031 782.88,515.415Z" style="fill:rgb(240,228,217);"/>
                </g>
                <g transform="matrix(1.801646,0,0,1.801646,2320.376536,1848.685599)">
                    <path d="M386.971,564.518C380.547,650.905 261.406,659.579 241.839,576.442C224.396,502.326 323.699,450.545 373.106,516.771C389.964,539.368 386.973,564.42 386.971,564.518Z" style="fill:rgb(239,227,216);"/>
                </g>
            </g>
        </g>
    </g>
    <defs>
        <linearGradient id="_Linear1" x1="0" y1="0" x2="1" y2="0" gradientUnits="userSpaceOnUse" gradientTransform="matrix(1008.374988,0,0,1021.799239,1.013713,511.895147)"><stop offset="0" style="stop-color:rgb(95,52,117);stop-opacity:1"/><stop offset="1" style="stop-color:rgb(8,24,73);stop-opacity:1"/></linearGradient>
    </defs>
</svg>
